<?xml version="1.0" encoding="UTF-8"?>
<svg width="1354px" height="1354px" viewBox="0 0 1354 1354" version="1.1" xmlns="http://www.w3.org/2000/svg" xmlns:xlink="http://www.w3.org/1999/xlink">
    <!-- Generator: Sketch 48.2 (47327) - http://www.bohemiancoding.com/sketch -->
    <title>Logo</title>
    <desc>Created with Sketch.</desc>
    <defs></defs>
    <g id="Desktop" stroke="none" stroke-width="1" fill="none" fill-rule="evenodd">
        <g id="Logo">
            <rect id="Background" fill="#314FBD" x="0" y="0" width="1354" height="1354"></rect>
            <g id="Main-Text" transform="translate(141.000000, 315.000000)" fill="#FFFFFF">
                <path d="M128.187664,3.55833333 L172.198131,3.55833333 L172.198131,155.281 C172.198131,170.633966 170.166899,183.898277 166.104374,195.074333 C162.041849,206.250389 156.343115,215.507186 149.008,222.845 C141.672885,230.182814 132.927303,235.657871 122.770991,239.270333 C112.614678,242.882796 101.442902,244.689 89.2553271,244.689 C59.9148689,244.689 38.1919708,237.577071 24.0859813,223.353 C9.97999178,209.128929 2.9271028,188.357581 2.9271028,161.038333 L2.9271028,3.55833333 L49.3073645,3.55833333 L49.3073645,151.894333 C49.3073645,169.956646 52.579905,183.051626 59.1250841,191.179667 C65.6702633,199.307707 75.9392696,203.371667 89.9324112,203.371667 C103.474161,203.371667 113.23536,199.025488 119.216299,190.333 C125.197239,181.640512 128.187664,168.827751 128.187664,151.894333 L128.187664,3.55833333 Z M200.974206,155.958333 C200.974206,141.734262 203.118284,129.090833 207.406505,118.027667 C211.694725,106.9645 217.788422,97.5948162 225.687776,89.9183333 C233.58713,82.2418505 243.00979,76.4281309 253.956037,72.477 C264.902285,68.5258691 277.146101,66.5503333 290.68785,66.5503333 C304.906688,66.5503333 317.601888,68.6952008 328.773832,72.985 C339.945775,77.2747992 349.368435,83.3142944 357.042093,91.1036667 C364.715752,98.8930389 370.527332,108.319167 374.477009,119.382333 C378.426686,130.4455 380.401495,142.637378 380.401495,155.958333 C380.401495,170.182404 378.257417,182.825834 373.969196,193.889 C369.680975,204.952166 363.587279,214.321851 355.687925,221.998333 C347.788571,229.674816 338.365911,235.488536 327.419664,239.439667 C316.473416,243.390798 304.2296,245.366333 290.68785,245.366333 C276.469013,245.366333 263.773813,243.221466 252.601869,238.931667 C241.429925,234.641867 232.007266,228.602372 224.333607,220.813 C216.659949,213.023628 210.848369,203.5975 206.898692,192.534333 C202.949015,181.471167 200.974206,169.279289 200.974206,155.958333 Z M246.338841,155.958333 C246.338841,163.409037 247.354457,170.295191 249.38572,176.617 C251.416982,182.938809 254.350984,188.47031 258.187813,193.211667 C262.024642,197.953024 266.651337,201.621876 272.068037,204.218333 C277.484737,206.814791 283.69128,208.113 290.68785,208.113 C303.778209,208.113 314.442177,203.936153 322.680075,195.582333 C330.917973,187.228514 335.03686,174.020646 335.03686,155.958333 C335.03686,140.379589 331.200088,127.792604 323.52643,118.197 C315.852772,108.601396 304.906688,103.803667 290.68785,103.803667 C284.368367,103.803667 278.500364,104.763213 273.083664,106.682333 C267.666964,108.601454 262.983845,111.705867 259.034168,115.995667 C255.084491,120.285466 251.98122,125.704078 249.724262,132.251667 C247.467303,138.799255 246.338841,146.701398 246.338841,155.958333 Z M416.286953,240.625 L416.286953,203.371667 L456.234916,203.371667 L456.234916,108.545 L415.948411,108.545 L415.948411,71.2916667 L456.234916,71.2916667 L456.234916,61.809 C456.234916,51.1973914 458.096879,42.0534828 461.82086,34.377 C465.544841,26.7005172 470.453652,20.3788026 476.547439,15.4116667 C482.641227,10.4445307 489.694116,6.77567852 497.706318,4.405 C505.71852,2.03432148 514.012717,0.849 522.589159,0.849 C538.162171,0.849 550.970218,2.14720924 561.013682,4.74366667 C571.057147,7.34012409 579.351344,10.5574253 585.896523,14.3956667 L573.031925,47.9236667 C567.840921,45.4400987 562.255033,43.1823435 556.274093,41.1503333 C550.293154,39.1183232 542.563188,38.1023333 533.083963,38.1023333 C520.896388,38.1023333 512.376498,40.8680835 507.524037,46.3996667 C502.671577,51.9312499 500.245383,60.2285002 500.245383,71.2916667 L571.339215,71.2916667 L571.339215,108.545 L500.245383,108.545 L500.245383,203.371667 L571.677757,203.371667 L571.677757,240.625 L416.286953,240.625 Z M635.323664,203.371667 L673.917458,203.371667 L673.917458,40.8116667 L641.417421,40.8116667 L641.417421,81.7903333 L604.177794,81.7903333 L604.177794,3.55833333 L789.698841,3.55833333 L789.698841,81.7903333 L752.459215,81.7903333 L752.459215,40.8116667 L720.29772,40.8116667 L720.29772,203.371667 L758.552972,203.371667 L758.552972,240.625 L635.323664,240.625 L635.323664,203.371667 Z M136.312673,542.038333 L173.552299,542.038333 L173.552299,609.771667 C166.330032,614.964582 157.133065,619.028541 145.961121,621.963667 C134.789178,624.898792 123.335286,626.366333 111.599103,626.366333 C96.7031779,626.366333 82.5409768,624.165022 69.1120748,619.762333 C55.6831727,615.359645 43.8907424,608.247716 33.7344299,598.426333 C23.5781174,588.604951 15.4531893,575.848634 9.35940187,560.157 C3.26561439,544.465366 0.218766355,525.443778 0.218766355,503.091667 C0.218766355,479.836439 3.66057617,460.363301 10.5442991,444.671667 C17.428022,428.980033 26.2864505,416.336604 37.1198505,406.741 C47.9532504,397.145396 60.0277963,390.259243 73.3438505,386.082333 C86.6599046,381.905424 99.7500665,379.817 112.614729,379.817 C126.156479,379.817 137.610371,380.945878 146.976748,383.203667 C156.343125,385.461456 164.073091,388.057874 170.166879,390.993 L170.166879,461.435667 L132.927252,461.435667 L132.927252,422.827667 C125.930682,421.698772 118.708523,421.134333 111.260561,421.134333 C102.458423,421.134333 94.2770721,422.771206 86.7162617,426.045 C79.1554513,429.318794 72.5539472,434.342299 66.9115514,441.115667 C61.2691556,447.889034 56.8681529,456.41206 53.7084112,466.685 C50.5486696,476.95794 48.9688224,489.093374 48.9688224,503.091667 C48.9688224,515.283728 50.4358233,526.403172 53.3698692,536.450333 C56.303915,546.497495 60.5920715,555.133408 66.2344673,562.358333 C71.8768631,569.583258 78.7604827,575.171202 86.8855327,579.122333 C95.0105827,583.073464 104.263973,585.049 114.645981,585.049 C122.093944,585.049 129.316102,584.371673 136.312673,583.017 L136.312673,542.038333 Z M200.974206,536.958333 C200.974206,522.734262 203.118284,510.090833 207.406505,499.027667 C211.694725,487.9645 217.788422,478.594816 225.687776,470.918333 C233.58713,463.241851 243.00979,457.428131 253.956037,453.477 C264.902285,449.525869 277.146101,447.550333 290.68785,447.550333 C304.906688,447.550333 317.601888,449.695201 328.773832,453.985 C339.945775,458.274799 349.368435,464.314294 357.042093,472.103667 C364.715752,479.893039 370.527332,489.319167 374.477009,500.382333 C378.426686,511.4455 380.401495,523.637378 380.401495,536.958333 C380.401495,551.182404 378.257417,563.825834 373.969196,574.889 C369.680975,585.952166 363.587279,595.321851 355.687925,602.998333 C347.788571,610.674816 338.365911,616.488536 327.419664,620.439667 C316.473416,624.390798 304.2296,626.366333 290.68785,626.366333 C276.469013,626.366333 263.773813,624.221466 252.601869,619.931667 C241.429925,615.641867 232.007266,609.602372 224.333607,601.813 C216.659949,594.023628 210.848369,584.5975 206.898692,573.534333 C202.949015,562.471167 200.974206,550.279289 200.974206,536.958333 Z M246.338841,536.958333 C246.338841,544.409037 247.354457,551.295191 249.38572,557.617 C251.416982,563.938809 254.350984,569.47031 258.187813,574.211667 C262.024642,578.953024 266.651337,582.621876 272.068037,585.218333 C277.484737,587.814791 283.69128,589.113 290.68785,589.113 C303.778209,589.113 314.442177,584.936153 322.680075,576.582333 C330.917973,568.228514 335.03686,555.020646 335.03686,536.958333 C335.03686,521.379589 331.200088,508.792604 323.52643,499.197 C315.852772,489.601396 304.906688,484.803667 290.68785,484.803667 C284.368367,484.803667 278.500364,485.763213 273.083664,487.682333 C267.666964,489.601454 262.983845,492.705867 259.034168,496.995667 C255.084491,501.285466 251.98122,506.704078 249.724262,513.251667 C247.467303,519.799255 246.338841,527.701398 246.338841,536.958333 Z M495.844336,384.558333 L566.599626,384.558333 L566.599626,530.862333 C566.599626,547.795751 567.502396,564.50314 569.307963,580.985 C569.307963,582.113895 569.420809,583.242772 569.646505,584.371667 L591.313196,584.371667 L591.313196,621.625 L536.807925,621.625 L532.406879,599.950333 L531.05271,599.950333 C528.795752,604.014354 525.748904,607.626762 521.912075,610.787667 C518.075246,613.948571 513.787089,616.714321 509.047477,619.085 C504.307864,621.455679 499.116938,623.261883 493.474542,624.503667 C487.832146,625.745451 482.189835,626.366333 476.547439,626.366333 C465.939735,626.366333 455.952844,624.673017 446.586467,621.286333 C437.22009,617.89965 429.038739,612.650369 422.042168,605.538333 C415.045597,598.426298 409.516132,589.395277 405.453607,578.445 C401.391082,567.494723 399.35985,554.569075 399.35985,539.667667 C399.35985,525.217817 401.560352,512.348612 405.961421,501.059667 C410.362489,489.770721 416.456185,480.231706 424.242692,472.442333 C432.029198,464.652961 441.226165,458.66991 451.833869,454.493 C462.441573,450.31609 474.064734,448.227667 486.703701,448.227667 C493.700272,448.227667 500.301776,448.622774 506.508411,449.413 C512.715047,450.203226 518.075242,451.501435 522.589159,453.307667 L522.589159,421.811667 L495.844336,421.811667 L495.844336,384.558333 Z M486.703701,589.113 C495.280143,589.113 502.897263,587.024576 509.55529,582.847667 C516.213317,578.670757 520.557896,572.631262 522.589159,564.729 L522.589159,492.931667 C519.429417,490.448099 515.084838,488.585451 509.55529,487.343667 C504.025742,486.101883 498.214161,485.481 492.120374,485.481 C486.026586,485.481 480.10216,486.49699 474.346916,488.529 C468.591672,490.56101 463.513592,493.778311 459.112523,498.181 C454.711455,502.583689 451.213222,508.284521 448.61772,515.283667 C446.022218,522.282813 444.724486,530.862283 444.724486,541.022333 C444.724486,555.472183 448.335565,567.099623 455.557832,575.905 C462.780098,584.710377 473.161951,589.113 486.703701,589.113 Z M776.157159,603.675667 C773.223113,606.385014 769.442765,609.037876 764.816,611.634333 C760.189235,614.230791 754.772617,616.657878 748.565981,618.915667 C742.359346,621.173456 735.532149,622.97966 728.084187,624.334333 C720.636224,625.689007 712.736989,626.366333 704.386243,626.366333 C689.94171,626.366333 677.020817,624.334354 665.623178,620.270333 C654.225538,616.206313 644.577186,610.279706 636.677832,602.490333 C628.778478,594.700961 622.741205,585.331277 618.565832,574.381 C614.390459,563.430723 612.302804,550.956626 612.302804,536.958333 C612.302804,522.056925 614.672574,509.018389 619.412187,497.842333 C624.151799,486.666277 630.640457,477.353037 638.878355,469.902333 C647.116253,462.451629 656.764605,456.863685 667.823701,453.138333 C678.882797,449.412981 690.844496,447.550333 703.709159,447.550333 C712.285601,447.550333 721.144029,448.679211 730.28471,450.937 C739.425391,453.194789 747.832435,457.089417 755.506093,462.621 C763.179752,468.152583 769.442717,475.546731 774.295178,484.803667 C779.147638,494.060602 781.573832,505.800929 781.573832,520.025 C781.573832,529.733493 780.44537,540.232055 778.188411,551.521 L656.313271,551.521 C656.538967,558.745925 658.062391,564.841864 660.883589,569.809 C663.704787,574.776136 667.428712,578.840095 672.055477,582.001 C676.682241,585.161905 681.986014,587.476104 687.966953,588.943667 C693.947893,590.41123 700.323704,591.145 707.094579,591.145 C720.636329,591.145 731.751682,589.564571 740.440972,586.403667 C749.130262,583.242762 756.18315,579.404578 761.59985,574.889 L776.157159,603.675667 Z M703.032075,482.771667 C697.163983,482.771667 691.634518,483.561881 686.443514,485.142333 C681.25251,486.722786 676.569392,489.036985 672.394019,492.085 C668.218646,495.133015 664.776836,498.914755 662.068486,503.430333 C659.360136,507.945911 657.780289,513.025861 657.328897,518.670333 L740.610243,518.670333 C740.610243,507.607167 737.506972,498.858366 731.300336,492.423667 C725.093701,485.988968 715.671041,482.771667 703.032075,482.771667 Z M934.594841,574.889 C934.594841,570.373422 931.830109,566.761014 926.300561,564.051667 C920.771013,561.34232 913.943816,558.858789 905.818766,556.601 C897.693716,554.343211 888.778865,552.029012 879.073944,549.658333 C869.369023,547.287655 860.454171,544.01391 852.329121,539.837 C844.204072,535.66009 837.376875,530.354366 831.847327,523.919667 C826.317779,517.484968 823.553047,509.187717 823.553047,499.027667 C823.553047,490.673847 825.415009,483.336143 829.138991,477.014333 C832.862972,470.692524 837.941052,465.330355 844.373383,460.927667 C850.805714,456.524978 858.479258,453.194789 867.394243,450.937 C876.309228,448.679211 885.95758,447.550333 896.339589,447.550333 C907.398685,447.550333 917.10346,448.340548 925.454206,449.921 C933.804951,451.501452 941.083533,453.420544 947.290168,455.678333 C953.496804,457.936122 958.800576,460.476097 963.201645,463.298333 C967.602714,466.12057 971.383062,468.660544 974.542804,470.918333 L955.922991,501.059667 C952.537553,499.027657 948.644358,496.939233 944.24329,494.794333 C939.842221,492.649434 935.215526,490.673898 930.363065,488.867667 C925.510605,487.061435 920.432525,485.593895 915.128673,484.465 C909.824821,483.336105 904.577471,482.771667 899.386467,482.771667 C889.907242,482.771667 882.233699,484.013432 876.365607,486.497 C870.497516,488.980568 867.563514,492.818752 867.563514,498.011667 C867.563514,502.075687 870.328246,505.349432 875.857794,507.833 C881.387342,510.316568 888.214539,512.630767 896.339589,514.775667 C904.464639,516.920566 913.37949,519.234765 923.084411,521.718333 C932.789332,524.201901 941.704184,527.419202 949.829234,531.370333 C957.954284,535.321464 964.78148,540.457857 970.311028,546.779667 C975.840576,553.101476 978.605308,561.229395 978.605308,571.163667 C978.605308,588.322864 972.342343,601.812951 959.816224,611.634333 C947.290106,621.455716 928.726902,626.366333 904.126056,626.366333 C884.716214,626.366333 867.95855,623.487695 853.852561,617.730333 C839.746571,611.972971 828.405526,605.256149 819.829084,597.579667 L840.141607,565.745 C843.075653,568.228568 846.968848,570.994318 851.821308,574.042333 C856.673769,577.090349 862.146811,579.856099 868.240598,582.339667 C874.334386,584.823235 880.823043,586.911658 887.706766,588.605 C894.590489,590.298342 901.417686,591.145 908.188561,591.145 C915.410827,591.145 921.61737,589.903235 926.808374,587.419667 C931.999378,584.936099 934.594841,580.759252 934.594841,574.889 Z" id="UofT-Codes"></path>
                <rect id="Rectangle" x="1054.52336" y="441.708333" width="63.4766355" height="190.5"></rect>
            </g>
        </g>
    </g>
</svg>