<?xml version="1.0" encoding="UTF-8"?>
<svg width="48px" height="48px" viewBox="0 0 48 48" version="1.1" xmlns="http://www.w3.org/2000/svg" xmlns:xlink="http://www.w3.org/1999/xlink">
    <!-- Generator: Sketch 48.2 (47327) - http://www.bohemiancoding.com/sketch -->
    <title>Logo</title>
    <desc>Created with Sketch.</desc>
    <defs></defs>
    <g id="Desktop" stroke="none" stroke-width="1" fill="none" fill-rule="evenodd" transform="translate(-122.000000, -128.000000)">
        <g id="Main-Text" transform="translate(122.000000, 128.000000)">
            <g id="Logo">
                <rect id="Background" fill="#FFB4DC" x="0" y="0" width="48" height="48" rx="8"></rect>
                <g id="Main-Text" transform="translate(4.998523, 11.166913)" fill="#314FBD">
                    <path d="M4.54431894,0.126144756 L6.10451276,0.126144756 L6.10451276,5.50479173 C6.10451276,6.0490623 6.03250454,6.51928901 5.88848593,6.91548597 C5.74446732,7.31168293 5.54244424,7.63984114 5.28241064,7.89997046 C5.02237703,8.16009977 4.71234162,8.35419335 4.35229509,8.48225702 C3.99224856,8.61032068 3.59620332,8.67435155 3.16414749,8.67435155 C2.12401308,8.67435155 1.35392511,8.42223 0.85386049,7.91797932 C0.353795868,7.41372865 0.103767308,6.67737363 0.103767308,5.70889217 L0.103767308,0.126144756 L1.74797156,0.126144756 L1.74797156,5.38473264 C1.74797156,6.02505096 1.86398481,6.48927478 2.0960148,6.77741802 C2.32804478,7.06556126 2.69208637,7.20963072 3.18815047,7.20963072 C3.66821251,7.20963072 4.01425204,7.05555644 4.22627944,6.74740325 C4.43830683,6.43925006 4.54431894,5.98503107 4.54431894,5.38473264 L4.54431894,0.126144756 Z M7.12463949,5.52880355 C7.12463949,5.02455287 7.20064817,4.57633677 7.35266782,4.1841418 C7.50468746,3.79194683 7.72071214,3.45978669 8.00074833,3.1876514 C8.28078451,2.91551612 8.61482267,2.70941675 9.00287282,2.56934712 C9.39092296,2.42927749 9.82497254,2.35924372 10.3050346,2.35924372 C10.8090997,2.35924372 11.2591511,2.43528038 11.6552023,2.58735598 C12.0512535,2.73943158 12.3852916,2.95353481 12.6573268,3.22967208 C12.929362,3.50580936 13.1353855,3.83997047 13.2754036,4.23216544 C13.4154217,4.62436041 13.4854297,5.05656879 13.4854297,5.52880355 C13.4854297,6.03305422 13.409421,6.48127032 13.2574013,6.87346529 C13.1053817,7.26566026 12.889357,7.5978204 12.6093208,7.86995569 C12.3292846,8.14209097 11.9952465,8.34819034 11.6071963,8.48825997 C11.2191462,8.6283296 10.7850966,8.69836337 10.3050346,8.69836337 C9.80096944,8.69836337 9.35091803,8.62232671 8.95486685,8.47025111 C8.55881567,8.31817551 8.22477752,8.10407228 7.95274236,7.82793501 C7.68070721,7.55179773 7.47468367,7.21763662 7.33466558,6.82544165 C7.19464749,6.43324669 7.12463949,6.0010383 7.12463949,5.52880355 Z M8.73283927,5.52880355 C8.73283927,5.79293485 8.76884338,6.03705255 8.84085269,6.26116396 C8.912862,6.48527537 9.01687388,6.68136991 9.15289145,6.84945347 C9.28890903,7.01753703 9.45292777,7.14759974 9.64495258,7.23964549 C9.8369774,7.33169125 10.0570025,7.37771344 10.3050346,7.37771344 C10.7690945,7.37771344 11.1471377,7.22964205 11.4391755,6.93349483 C11.7312132,6.63734761 11.8772299,6.16912186 11.8772299,5.52880355 C11.8772299,4.976529 11.7412144,4.53031386 11.4691792,4.19014476 C11.197144,3.84997565 10.8090997,3.67989365 10.3050346,3.67989365 C10.0810056,3.67989365 9.87298187,3.71391005 9.68095705,3.78194387 C9.48893224,3.84997769 9.32291327,3.96003075 9.18289518,4.11210635 C9.04287709,4.26418195 8.93286452,4.45627457 8.85285418,4.68838996 C8.77284384,4.92050535 8.73283927,5.20064041 8.73283927,5.52880355 Z M14.7575877,8.53028065 L14.7575877,7.20963072 L16.1737636,7.20963072 L16.1737636,3.84797637 L14.7455862,3.84797637 L14.7455862,2.52732644 L16.1737636,2.52732644 L16.1737636,2.191161 C16.1737636,1.81497399 16.2397712,1.49081771 16.3717882,1.21868242 C16.5038053,0.946547138 16.6778252,0.722439088 16.8938531,0.546351551 C17.109881,0.370264014 17.3599096,0.240201306 17.6439463,0.156159527 C17.927983,0.0721177482 18.2220166,0.0300974889 18.5260559,0.0300974889 C19.0781272,0.0300974889 19.5321791,0.0761196776 19.8882251,0.168165436 C20.2442711,0.260211194 20.5383047,0.374266183 20.7703347,0.510333826 L20.314278,1.69891876 C20.1302542,1.61087499 19.9322316,1.5308364 19.7202042,1.45880059 C19.5081768,1.38676478 19.2341455,1.35074742 18.8981021,1.35074742 C18.4660462,1.35074742 18.1640117,1.44879469 17.9919895,1.64489217 C17.8199673,1.84098966 17.7339575,2.13513147 17.7339575,2.52732644 L20.2542705,2.52732644 L20.2542705,3.84797637 L17.7339575,3.84797637 L17.7339575,7.20963072 L20.266272,7.20963072 L20.266272,8.53028065 L14.7575877,8.53028065 Z M22.5225523,7.20963072 L23.8907223,7.20963072 L23.8907223,1.44679468 L22.7385792,1.44679468 L22.7385792,2.8995096 L21.4184152,2.8995096 L21.4184152,0.126144756 L27.9952322,0.126144756 L27.9952322,2.8995096 L26.6750682,2.8995096 L26.6750682,1.44679468 L25.5349265,1.44679468 L25.5349265,7.20963072 L26.891095,7.20963072 L26.891095,8.53028065 L22.5225523,8.53028065 L22.5225523,7.20963072 Z M4.83235473,19.2155391 L6.15251873,19.2155391 L6.15251873,21.6167208 C5.89648564,21.8008123 5.5704484,21.9448818 5.17439722,22.0489335 C4.77834604,22.1529853 4.37229965,22.2050103 3.95624589,22.2050103 C3.42817765,22.2050103 2.9261203,22.1269727 2.45005878,21.9708951 C1.97399726,21.8148175 1.55594951,21.562696 1.19590298,21.2145229 C0.835856453,20.8663498 0.547823551,20.4141318 0.331795635,19.8578552 C0.115767718,19.3015787 0.00775538039,18.6272536 0.00775538039,17.8348597 C0.00775538039,17.0104498 0.129769318,16.320117 0.373800853,15.7638405 C0.617832388,15.2075639 0.93186826,14.7593478 1.31591789,14.4191787 C1.69996752,14.0790096 2.12801641,13.8348919 2.60007742,13.6868183 C3.07213842,13.5387447 3.53619143,13.464709 3.99225036,13.464709 C4.4723124,13.464709 4.87835878,13.5047283 5.21040169,13.5847681 C5.5424446,13.6648079 5.8164759,13.7568523 6.03250382,13.860904 L6.03250382,16.3581329 L4.71233982,16.3581329 L4.71233982,14.9894594 C4.46430776,14.9494395 4.20827852,14.9294298 3.9442444,14.9294298 C3.63220407,14.9294298 3.34217094,14.9874578 3.07413631,15.1035155 C2.80610167,15.2195732 2.57207494,15.3976591 2.37204909,15.6377784 C2.17202324,15.8778978 2.01600542,16.1800435 1.90399094,16.5442245 C1.79197647,16.9084056 1.73597007,17.338613 1.73597007,17.8348597 C1.73597007,18.2670745 1.78797601,18.6612646 1.89198945,19.0174417 C1.99600289,19.3736187 2.14802026,19.6797663 2.34804611,19.9358936 C2.54807196,20.192021 2.79209983,20.3901165 3.08013705,20.5301861 C3.36817428,20.6702557 3.69621175,20.7402895 4.06425931,20.7402895 C4.32829343,20.7402895 4.58432267,20.7162779 4.83235473,20.6682541 L4.83235473,19.2155391 Z M7.12463949,19.0354505 C7.12463949,18.5311998 7.20064817,18.0829837 7.35266782,17.6907888 C7.50468746,17.2985938 7.72071214,16.9664337 8.00074833,16.6942984 C8.28078451,16.4221631 8.61482267,16.2160637 9.00287282,16.0759941 C9.39092296,15.9359245 9.82497254,15.8658907 10.3050346,15.8658907 C10.8090997,15.8658907 11.2591511,15.9419274 11.6552023,16.094003 C12.0512535,16.2460786 12.3852916,16.4601818 12.6573268,16.7363191 C12.929362,17.0124563 13.1353855,17.3466174 13.2754036,17.7388124 C13.4154217,18.1310074 13.4854297,18.5632158 13.4854297,19.0354505 C13.4854297,19.5397012 13.409421,19.9879173 13.2574013,20.3801123 C13.1053817,20.7723072 12.889357,21.1044674 12.6093208,21.3766027 C12.3292846,21.6487379 11.9952465,21.8548373 11.6071963,21.9949069 C11.2191462,22.1349766 10.7850966,22.2050103 10.3050346,22.2050103 C9.80096944,22.2050103 9.35091803,22.1289737 8.95486685,21.9768981 C8.55881567,21.8248225 8.22477752,21.6107193 7.95274236,21.334582 C7.68070721,21.0584447 7.47468367,20.7242836 7.33466558,20.3320886 C7.19464749,19.9398937 7.12463949,19.5076853 7.12463949,19.0354505 Z M8.73283927,19.0354505 C8.73283927,19.2995818 8.76884338,19.5436995 8.84085269,19.7678109 C8.912862,19.9919223 9.01687388,20.1880169 9.15289145,20.3561004 C9.28890903,20.524184 9.45292777,20.6542467 9.64495258,20.7462925 C9.8369774,20.8383382 10.0570025,20.8843604 10.3050346,20.8843604 C10.7690945,20.8843604 11.1471377,20.736289 11.4391755,20.4401418 C11.7312132,20.1439946 11.8772299,19.6757688 11.8772299,19.0354505 C11.8772299,18.483176 11.7412144,18.0369608 11.4691792,17.6967917 C11.197144,17.3566226 10.8090997,17.1865406 10.3050346,17.1865406 C10.0810056,17.1865406 9.87298187,17.220557 9.68095705,17.2885908 C9.48893224,17.3566247 9.32291327,17.4666777 9.18289518,17.6187533 C9.04287709,17.7708289 8.93286452,17.9629215 8.85285418,18.1950369 C8.77284384,18.4271523 8.73283927,18.7072874 8.73283927,19.0354505 Z M17.5779381,13.6327917 L20.0862497,13.6327917 L20.0862497,18.8193442 C20.0862497,19.4196426 20.1182533,20.0119281 20.1822616,20.5962186 C20.1822616,20.6362385 20.1862621,20.6762578 20.1942631,20.7162777 L20.9623585,20.7162777 L20.9623585,22.0369276 L19.0301185,22.0369276 L18.8740991,21.2685495 L18.8260931,21.2685495 C18.7460828,21.4126211 18.6380704,21.5406828 18.5020529,21.6527386 C18.3660353,21.7647943 18.2140179,21.8628415 18.0459962,21.9468833 C17.8779745,22.0309251 17.6939535,22.094956 17.4939276,22.1389778 C17.2939018,22.1829997 17.0938789,22.2050103 16.8938531,22.2050103 C16.5178045,22.2050103 16.1637641,22.1449814 15.8317211,22.0249217 C15.4996782,21.904862 15.2096451,21.7187723 14.9616131,21.466647 C14.713581,21.2145216 14.5175586,20.8943673 14.37354,20.5061743 C14.2295214,20.1179813 14.1575132,19.6597604 14.1575132,19.1314978 C14.1575132,18.6192431 14.2355221,18.1630232 14.3915422,17.7628242 C14.5475624,17.3626253 14.7635871,17.0244622 15.0396227,16.748325 C15.3156584,16.4721877 15.6416957,16.2600854 16.0177443,16.1120118 C16.3937928,15.9639382 16.8058399,15.8899025 17.2538978,15.8899025 C17.5019299,15.8899025 17.7359566,15.9039093 17.955985,15.9319232 C18.1760135,15.9599371 18.3660352,16.0059593 18.5260559,16.0699911 L18.5260559,14.9534417 L17.5779381,14.9534417 L17.5779381,13.6327917 Z M17.2538978,20.8843604 C17.5579371,20.8843604 17.827968,20.8103247 18.0639985,20.6622511 C18.300029,20.5141775 18.4540465,20.3000743 18.5260559,20.019935 L18.5260559,17.4746824 C18.4140414,17.3866387 18.2600238,17.3206068 18.0639985,17.2765849 C17.8679731,17.232563 17.6619496,17.2105524 17.4459217,17.2105524 C17.2298938,17.2105524 17.0198698,17.2465698 16.8158434,17.3186056 C16.611817,17.3906414 16.4317965,17.5046964 16.2757763,17.660774 C16.1197561,17.8168516 15.995742,18.018949 15.9037301,18.2670724 C15.8117182,18.5151957 15.7657129,18.8193424 15.7657129,19.1795214 C15.7657129,19.6917761 15.8937276,20.1039748 16.1497607,20.41613 C16.4057937,20.7282852 16.7738358,20.8843604 17.2538978,20.8843604 Z M27.5151725,21.4006145 C27.4111591,21.4966622 27.2771438,21.5907076 27.1131226,21.6827533 C26.9491014,21.7747991 26.7570795,21.8608406 26.537051,21.9408804 C26.3170226,22.0209201 26.074995,22.084951 25.8109608,22.1329749 C25.5469267,22.1809988 25.2668947,22.2050103 24.9708565,22.2050103 C24.4587903,22.2050103 24.000738,22.1329756 23.5966858,21.988904 C23.1926335,21.8448324 22.8505945,21.6347311 22.5705583,21.3585938 C22.2905221,21.0824565 22.0764977,20.7502964 21.9284785,20.3621034 C21.7804594,19.9739104 21.7064509,19.5316972 21.7064509,19.0354505 C21.7064509,18.5071879 21.7904605,18.0449651 21.9584823,17.6487681 C22.126504,17.2525711 22.3565302,16.922412 22.648568,16.6582806 C22.9406057,16.3941493 23.2826448,16.1960538 23.6746955,16.0639882 C24.0667461,15.9319225 24.4907946,15.8658907 24.9468535,15.8658907 C25.2508928,15.8658907 25.5649287,15.90591 25.8889705,15.9859498 C26.2130124,16.0659896 26.5110464,16.2040561 26.7830816,16.4001536 C27.0551168,16.5962511 27.2771421,16.8583775 27.4491643,17.1865406 C27.6211866,17.5147038 27.7071964,17.9309044 27.7071964,18.4351551 C27.7071964,18.7793262 27.6671918,19.1515056 27.5871815,19.5517046 L23.2666448,19.5517046 C23.2746458,19.8078319 23.328652,20.0239361 23.4286649,20.2000236 C23.5286778,20.3761112 23.6606929,20.5201806 23.8247141,20.6322363 C23.9887353,20.744292 24.1767568,20.8263316 24.3887842,20.8783575 C24.6008116,20.9303833 24.8268374,20.9563959 25.0668684,20.9563959 C25.5469304,20.9563959 25.9409754,20.9003689 26.2490153,20.7883131 C26.5570551,20.6762574 26.8070836,20.5401918 26.9991084,20.3801123 L27.5151725,21.4006145 Z M24.9228505,17.1145052 C24.7148236,17.1145052 24.5188012,17.1425187 24.3347775,17.1985465 C24.1507537,17.2545744 23.9847347,17.3366139 23.8367156,17.4446677 C23.6886965,17.5527214 23.5666825,17.686786 23.4706701,17.8468656 C23.3746577,18.0069452 23.3186513,18.187032 23.3026492,18.3871315 L26.255016,18.3871315 C26.255016,17.9949365 26.1450034,17.684787 25.924975,17.4566736 C25.7049466,17.2285602 25.3709084,17.1145052 24.9228505,17.1145052 Z M33.1318703,20.3801123 C33.1318703,20.2200327 33.0338591,20.0919709 32.8378338,19.9959232 C32.6418084,19.8998754 32.3997808,19.811833 32.1117436,19.7317932 C31.8237063,19.6517534 31.5076702,19.5697139 31.1636258,19.4856721 C30.8195813,19.4016303 30.5035452,19.2855743 30.215508,19.1375007 C29.9274708,18.9894271 29.6854431,18.8013364 29.4894178,18.573223 C29.2933925,18.3451096 29.1953813,18.0509678 29.1953813,17.6907888 C29.1953813,17.3946416 29.2613888,17.1345161 29.3934059,16.9104047 C29.5254229,16.6862933 29.7054435,16.4962017 29.933473,16.3401241 C30.1615024,16.1840465 30.4335335,16.0659896 30.7495743,15.9859498 C31.0656152,15.90591 31.4076543,15.8658907 31.7757018,15.8658907 C32.1677525,15.8658907 32.5117918,15.8939042 32.80783,15.9499321 C33.1038683,16.0059599 33.3618978,16.0739927 33.5819262,16.1540325 C33.8019546,16.2340723 33.9899761,16.3241157 34.1459963,16.4241654 C34.3020164,16.5242152 34.4360317,16.6142586 34.5480462,16.6942984 L33.8879642,17.7628242 C33.7679487,17.6907884 33.6299329,17.6167527 33.4739128,17.5407149 C33.3178926,17.4646771 33.1538739,17.3946434 32.9818517,17.3306115 C32.8098294,17.2665797 32.6298089,17.2145546 32.4417846,17.1745347 C32.2537603,17.1345148 32.067739,17.1145052 31.8837152,17.1145052 C31.5476718,17.1145052 31.2756407,17.1585264 31.0676139,17.2465702 C30.859587,17.3346139 30.7555751,17.4706795 30.7555751,17.654771 C30.7555751,17.7988427 30.8535863,17.9148986 31.0496116,18.0029424 C31.2456369,18.0909862 31.4876646,18.1730257 31.7757018,18.2490635 C32.063739,18.3251013 32.3797751,18.4071409 32.7238196,18.4951846 C33.0678641,18.5832284 33.3839002,18.6972834 33.6719374,18.837353 C33.9599746,18.9774227 34.2020023,19.1595105 34.3980276,19.3836219 C34.5940529,19.6077333 34.6920641,19.8958722 34.6920641,20.2480473 C34.6920641,20.8563497 34.4700387,21.3345802 34.0259814,21.6827533 C33.581924,22.0309264 32.9238488,22.2050103 32.0517361,22.2050103 C31.3636472,22.2050103 30.7695793,22.1029611 30.2695147,21.8988597 C29.7694501,21.6947582 29.3674042,21.4566434 29.0633649,21.1845081 L29.7834543,20.0559527 C29.8874678,20.1439965 30.0254835,20.2420438 30.1975058,20.3500975 C30.369528,20.4581512 30.5635502,20.5561985 30.7795781,20.6442422 C30.995606,20.732286 31.2256323,20.8063217 31.4696638,20.8663516 C31.7136953,20.9263814 31.955723,20.9563959 32.195754,20.9563959 C32.4517871,20.9563959 32.6718122,20.9123746 32.855836,20.8243309 C33.0398598,20.7362871 33.1318703,20.5882157 33.1318703,20.3801123 Z" id="UofT-Codes"></path>
                    <rect id="Rectangle" x="37.3833984" y="15.6587888" width="2.25027955" height="6.75332349"></rect>
                </g>
            </g>
        </g>
    </g>
</svg>